<?xml version="1.0" encoding="utf-8"?>
<!-- Svg Vector Icons : http://www.onlinewebfonts.com/icon -->
<!DOCTYPE svg PUBLIC "-//W3C//DTD SVG 1.1//EN" "http://www.w3.org/Graphics/SVG/1.1/DTD/svg11.dtd">
<svg version="1.1" xmlns="http://www.w3.org/2000/svg" xmlns:xlink="http://www.w3.org/1999/xlink" x="0px" y="0px" viewBox="0 0 1000 1000" enable-background="new 0 0 1000 1000" xml:space="preserve">
<metadata> Svg Vector Icons : http://www.onlinewebfonts.com/icon </metadata>
<g><g transform="translate(0.000000,511.000000) scale(0.100000,-0.100000)"><path d="M1921,4987.1c-19.8-23.8-11.9-63.4,45.6-204.2c307.3-765.2,681.9-1153.7,1294.5-1346c210.1-65.4,592.7-134.8,1122-202.2c229.9-27.8,418.3-53.5,418.3-55.5c2,0-2-59.5-9.9-130.8l-11.9-128.9l-138.8-11.9c-481.7-45.6-814.8-426.2-1088.3-1248.9c-49.6-146.7-144.7-475.8-210.1-731.5C3205.5,399.9,3134.2,177.9,3058.8,49c-29.7-49.6-154.6-231.9-277.5-404.4c-525.3-733.5-672-999.1-759.3-1383.7c-75.3-321.1-29.7-830.6,103.1-1203.3c329.1-915.9,1132-1562.1,2226.2-1794c228-49.6,289.4-53.5,685.9-53.5s457.9,4,685.9,53.5C7067.2-4451,7973.1-3519.3,8078.2-2316c55.5,642.3-89.2,991.2-852.4,2053.7C6993.9,60.9,6910.6,235.4,6811.5,610c-297.4,1116.1-360.8,1308.4-529.3,1631.5c-166.5,315.2-396.5,541.2-630.4,622.5c-53.5,17.8-160.6,37.7-237.9,43.6c-160.6,13.9-158.6,7.9-85.2,247.8c55.5,176.4,174.5,352.9,313.2,465.9c59.5,47.6,113,101.1,117,116.9c7.9,35.7-142.7,339-198.2,398.5c-59.5,63.4-134.8,51.5-259.7-35.7c-132.8-95.2-249.8-245.8-335-424.2l-63.4-134.8l-43.6,107c-303.3,747.4-1381.7,1306.4-2616.7,1356C1992.3,5014.9,1940.8,5010.9,1921,4987.1z M4654.7,2370.4c-261.7-380.6-360.8-886.1-360.8-1823.8c0-444-13.9-505.5-120.9-561c-124.9-65.4-283.5-7.9-364.7,130.9c-33.7,57.5-39.6,101.1-37.7,285.4c5.9,608.6,202.2,1306.4,473.8,1677.1c89.2,120.9,289.4,305.3,382.6,352.9c39.6,21.8,77.3,35.7,79.3,31.7C4710.2,2459.6,4688.3,2417.9,4654.7,2370.4z"/></g></g>
</svg>